<svg width="21" height="21" viewBox="0 0 21 21" fill="none" xmlns="http://www.w3.org/2000/svg">
<path d="M14.9339 8.51072C14.9339 8.4393 14.8982 8.35894 14.8446 8.30537L14.3982 7.85894C14.3446 7.80537 14.2643 7.76965 14.1928 7.76965C14.1214 7.76965 14.0411 7.80537 13.9875 7.85894L10.4786 11.3679L6.96962 7.85894C6.91605 7.80537 6.83569 7.76965 6.76426 7.76965C6.68391 7.76965 6.61248 7.80537 6.55891 7.85894L6.11248 8.30537C6.05891 8.35894 6.02319 8.4393 6.02319 8.51072C6.02319 8.58215 6.05891 8.66251 6.11248 8.71608L10.2732 12.8768C10.3268 12.9304 10.4071 12.9661 10.4786 12.9661C10.55 12.9661 10.6303 12.9304 10.6839 12.8768L14.8446 8.71608C14.8982 8.66251 14.9339 8.58215 14.9339 8.51072Z" fill="black" style="fill:black;fill-opacity:1;"/>
</svg>
