<svg width="21" height="21" viewBox="0 0 21 21" fill="none" xmlns="http://www.w3.org/2000/svg">
<g clip-path="url(#clip0_52_44)">
<path d="M13.3438 1.20801C14.3089 1.20801 15.0811 1.9802 15.0811 2.94531V4.55176H18.5C18.6851 4.55176 18.8686 4.62746 19.0059 4.74805C19.143 4.86871 19.2373 5.03757 19.2373 5.22656C19.2373 5.59793 18.9339 5.90137 18.5625 5.90137H17.9248V17.4766C17.9248 18.9108 16.746 20.0576 15.3438 20.0576H6.09375C4.65949 20.0576 3.5127 18.8788 3.5127 17.4766V5.90137H2.5C2.12864 5.90137 1.8252 5.59793 1.8252 5.22656C1.8252 4.8552 2.12864 4.55176 2.5 4.55176H6.29395V2.94531C6.29395 1.9802 7.06614 1.20801 8.03125 1.20801H13.3438ZM4.83105 17.4766C4.83105 18.1669 5.40182 18.708 6.0625 18.708H15.2812C15.9716 18.708 16.5127 18.1372 16.5127 17.4766V5.90137H4.83105V17.4766ZM8.03125 2.55762C7.80886 2.55762 7.64355 2.72293 7.64355 2.94531V4.55176H13.7627V2.94531C13.7627 2.72293 13.5974 2.55762 13.375 2.55762H8.03125Z" fill="#E15241" stroke="#E15241" style="fill:#E15241;fill:color(display-p3 0.8824 0.3216 0.2549);fill-opacity:1;stroke:#E15241;stroke:color(display-p3 0.8824 0.3216 0.2549);stroke-opacity:1;" stroke-width="0.1"/>
<path d="M7.34375 9.77051C7.71511 9.77051 8.01855 10.0739 8.01855 10.4453V14.5391C8.01855 14.9104 7.71511 15.2139 7.34375 15.2139C6.97239 15.2139 6.66895 14.9104 6.66895 14.5391V10.4453C6.66895 10.0739 6.97239 9.77051 7.34375 9.77051Z" fill="#E15241" stroke="#E15241" style="fill:#E15241;fill:color(display-p3 0.8824 0.3216 0.2549);fill-opacity:1;stroke:#E15241;stroke:color(display-p3 0.8824 0.3216 0.2549);stroke-opacity:1;" stroke-width="0.1"/>
<path d="M14.0315 9.77051C14.4029 9.77051 14.7063 10.0739 14.7063 10.4453V14.5391C14.7063 14.9104 14.4029 15.2139 14.0315 15.2139C13.6601 15.2139 13.3567 14.9104 13.3567 14.5391V10.4453C13.3567 10.0739 13.6601 9.77051 14.0315 9.77051Z" fill="#E15241" stroke="#E15241" style="fill:#E15241;fill:color(display-p3 0.8824 0.3216 0.2549);fill-opacity:1;stroke:#E15241;stroke:color(display-p3 0.8824 0.3216 0.2549);stroke-opacity:1;" stroke-width="0.1"/>
<path d="M10.6875 9.77051C11.0589 9.77051 11.3623 10.0739 11.3623 10.4453V14.5391C11.3623 14.9104 11.0589 15.2139 10.6875 15.2139C10.3161 15.2139 10.0127 14.9104 10.0127 14.5391V10.4453C10.0127 10.0739 10.3161 9.77051 10.6875 9.77051Z" fill="#E15241" stroke="#E15241" style="fill:#E15241;fill:color(display-p3 0.8824 0.3216 0.2549);fill-opacity:1;stroke:#E15241;stroke:color(display-p3 0.8824 0.3216 0.2549);stroke-opacity:1;" stroke-width="0.1"/>
</g>
<defs>
<clipPath id="clip0_52_44">
<rect width="20" height="20" fill="white" style="fill:white;fill-opacity:1;" transform="translate(0.5 0.632812)"/>
</clipPath>
</defs>
</svg>
