<svg width="55" height="56" viewBox="0 0 55 56" fill="none" xmlns="http://www.w3.org/2000/svg">
<path d="M23.9932 29.8724V28.5867C23.9932 28.2251 24.2745 27.9438 24.6361 27.9438H38.7789C39.1405 27.9438 39.4218 28.2251 39.4218 28.5867V29.8724C39.4218 30.234 39.1405 30.5152 38.7789 30.5152H24.6361C24.2745 30.5152 23.9932 30.234 23.9932 29.8724Z" fill="white" style="fill:white;fill-opacity:1;"/>
<path d="M24.6361 33.0867H38.7789C39.1405 33.0867 39.4218 33.3679 39.4218 33.7295V35.0152C39.4218 35.3768 39.1405 35.6581 38.7789 35.6581H24.6361C24.2745 35.6581 23.9932 35.3768 23.9932 35.0152V33.7295C23.9932 33.3679 24.2745 33.0867 24.6361 33.0867Z" fill="white" style="fill:white;fill-opacity:1;"/>
<path d="M24.6361 38.2295H38.7789C39.1405 38.2295 39.4218 38.5108 39.4218 38.8724V40.1581C39.4218 40.5197 39.1405 40.8009 38.7789 40.8009H24.6361C24.2745 40.8009 23.9932 40.5197 23.9932 40.1581V38.8724C23.9932 38.5108 24.2745 38.2295 24.6361 38.2295Z" fill="white" style="fill:white;fill-opacity:1;"/>
<path fill-rule="evenodd" clip-rule="evenodd" d="M16.2789 21.8147C12.1837 21.8147 8.86392 18.4949 8.86392 14.3997C8.86392 10.3045 12.1837 6.98474 16.2789 6.98474C19.7229 6.98474 22.6185 9.33271 23.4523 12.5152H36.2075C37.2722 12.5152 38.7588 13.138 39.5021 13.8813L45.77 20.1492C46.5133 20.8925 47.1361 22.3791 47.1361 23.4438V46.5867C47.1361 47.6514 46.2722 48.5152 45.2075 48.5152H18.2075C17.1428 48.5152 16.2789 47.6514 16.2789 46.5867L16.2789 21.8147ZM18.8504 21.3567C21.4729 20.3871 23.397 17.9769 23.6625 15.0867H34.2789V23.4438C34.2789 24.5085 35.1428 25.3724 36.2075 25.3724H44.5646V45.9438H18.8504V21.3567ZM37.674 15.6893C37.5334 15.5487 37.1919 15.3679 36.8504 15.2474V22.8009H44.4039C44.2834 22.4594 44.1026 22.1179 43.962 21.9773L37.674 15.6893ZM17.2789 15.3998H21.2789V13.3998H17.2789V9.39978H15.2789V13.3998H11.2789V15.3998H15.2789V19.3998H17.2789V15.3998Z" fill="white" style="fill:white;fill-opacity:1;"/>
</svg>
