<svg width="18" height="21" viewBox="0 0 18 21" fill="none" xmlns="http://www.w3.org/2000/svg">
<path d="M16.8124 4.60899L13.3303 1.12685C12.9173 0.713902 12.0914 0.36792 11.4999 0.36792H1.4999C0.908378 0.36792 0.428467 0.847831 0.428467 1.43935V19.2965C0.428467 19.888 0.908378 20.3679 1.4999 20.3679H16.4999C17.0914 20.3679 17.5713 19.888 17.5713 19.2965V6.43935C17.5713 5.84783 17.2253 5.02194 16.8124 4.60899ZM11.857 1.88578C12.0468 1.95274 12.2365 2.05319 12.3146 2.13131L15.8079 5.62462C15.8861 5.70274 15.9865 5.89247 16.0535 6.08221H11.857V1.88578ZM16.1428 18.9394H1.85704V1.79649H10.4285V6.43935C10.4285 7.03087 10.9084 7.51078 11.4999 7.51078H16.1428V18.9394ZM4.71418 9.29649V10.0108C4.71418 10.2117 4.87043 10.3679 5.07132 10.3679H12.9285C13.1294 10.3679 13.2856 10.2117 13.2856 10.0108V9.29649C13.2856 9.0956 13.1294 8.93935 12.9285 8.93935H5.07132C4.87043 8.93935 4.71418 9.0956 4.71418 9.29649ZM12.9285 11.7965H5.07132C4.87043 11.7965 4.71418 11.9527 4.71418 12.1536V12.8679C4.71418 13.0688 4.87043 13.2251 5.07132 13.2251H12.9285C13.1294 13.2251 13.2856 13.0688 13.2856 12.8679V12.1536C13.2856 11.9527 13.1294 11.7965 12.9285 11.7965ZM12.9285 14.6536H5.07132C4.87043 14.6536 4.71418 14.8099 4.71418 15.0108V15.7251C4.71418 15.926 4.87043 16.0822 5.07132 16.0822H12.9285C13.1294 16.0822 13.2856 15.926 13.2856 15.7251V15.0108C13.2856 14.8099 13.1294 14.6536 12.9285 14.6536Z" fill="#272733" style="fill:#272733;fill:color(display-p3 0.1529 0.1529 0.2000);fill-opacity:1;"/>
</svg>
