<svg width="55" height="56" viewBox="0 0 55 56" fill="none" xmlns="http://www.w3.org/2000/svg">
<path d="M44.4286 39.6072C44.4286 39.9487 44.1272 40.2501 43.7857 40.2501H14.2143C13.8728 40.2501 13.5714 39.9487 13.5714 39.6072V24.1786C13.9933 24.6608 14.4554 25.1027 14.9576 25.5045C17.8304 27.7143 20.7232 29.9643 23.5156 32.2947C25.0223 33.5603 26.8906 35.1072 28.9799 35.1072H29H29.0201C31.1094 35.1072 32.9777 33.5603 34.4844 32.2947C37.2768 29.9643 40.1696 27.7143 43.0424 25.5045C43.5446 25.1027 44.0067 24.6608 44.4286 24.1786V39.6072ZM44.4286 18.4934C44.4286 20.2009 42.7813 22.4309 41.4754 23.4554C38.7835 25.5648 36.0915 27.6942 33.4196 29.8237C32.3549 30.6876 30.4263 32.5358 29.0201 32.5358H29H28.9799C27.5737 32.5358 25.6451 30.6876 24.5804 29.8237C21.9085 27.6942 19.2165 25.5648 16.5246 23.4554C14.7165 22.0291 13.5714 20.0402 13.5714 17.7501C13.5714 17.4085 13.8728 17.1072 14.2143 17.1072H43.7857C44.5491 17.1072 44.4286 17.9911 44.4286 18.4934ZM47 17.7501C47 15.9822 45.5536 14.5358 43.7857 14.5358H14.2143C12.4464 14.5358 11 15.9822 11 17.7501V39.6072C11 41.3751 12.4464 42.8215 14.2143 42.8215H43.7857C45.5536 42.8215 47 41.3751 47 39.6072V17.7501Z" fill="white" style="fill:white;fill-opacity:1;"/>
</svg>
