<svg width="55" height="56" viewBox="0 0 55 56" fill="none" xmlns="http://www.w3.org/2000/svg">
<path d="M23.9286 32.5358V30.6072H26.5V24.8215H26.4598C26.1384 25.3237 25.8371 25.5447 25.3549 25.9666L23.808 24.3594L26.7812 21.6072H29.0714V30.6072H31.6429V32.5358H23.9286ZM34.2143 27.3929C34.2143 23.7367 32.0045 19.0358 27.7857 19.0358C23.567 19.0358 21.3571 23.7367 21.3571 27.3929C21.3571 31.0492 23.567 35.7501 27.7857 35.7501C32.0045 35.7501 34.2143 31.0492 34.2143 27.3929ZM44.5 32.5358C41.6674 32.5358 39.3571 34.846 39.3571 37.6786H16.2143C16.2143 34.846 13.904 32.5358 11.0714 32.5358V22.2501C13.904 22.2501 16.2143 19.9398 16.2143 17.1072H39.3571C39.3571 19.9398 41.6674 22.2501 44.5 22.2501V32.5358ZM47.0714 15.8215C47.0714 15.1184 46.4888 14.5358 45.7857 14.5358H9.78571C9.08259 14.5358 8.5 15.1184 8.5 15.8215V38.9643C8.5 39.6675 9.08259 40.2501 9.78571 40.2501H45.7857C46.4888 40.2501 47.0714 39.6675 47.0714 38.9643V15.8215Z" fill="white" style="fill:white;fill-opacity:1;"/>
</svg>
