<svg width="21" height="20" viewBox="0 0 21 20" fill="none" xmlns="http://www.w3.org/2000/svg">
<path d="M10.3407 0C11.751 0 13.0928 0.323103 14.2968 0.901077C14.4857 0.986269 14.6757 1.08823 14.8639 1.19028L14.0383 1.92159L12.8007 0.646297L10.668 2.51651L9.41211 1.17307L5.49045 4.65889L8.00123 7.39646L7.02105 8.24641L9.49819 10.984L8.51792 11.8336L12.0613 15.7274L14.1585 13.823L15.9825 15.8639C15.621 16.136 15.2254 16.4086 14.7959 16.6462C13.4885 17.3773 11.9747 17.8016 10.3581 17.8016C5.38688 17.8016 1.34552 13.8066 1.34552 8.89314C1.32796 4.01286 5.37004 0 10.3407 0ZM8.68928 8.34864L10.8393 6.44418L12.7661 8.56952L10.6156 10.4738L8.68928 8.34864ZM10.2205 12.0214L12.3531 10.1001L14.2968 12.2253L12.1467 14.1298L10.2205 12.0214ZM7.15939 4.72713L9.30883 2.82267L11.2352 4.948L9.08504 6.85238L7.15939 4.72713ZM11.0974 3.70661L12.6971 2.27842L14.1423 3.85978L12.5425 5.30484L11.0974 3.70661ZM13.9529 10.2528L15.5521 8.82456L16.9971 10.4224L15.3973 11.8516L13.9529 10.2528ZM15.3631 13.4668L16.9629 12.0382L18.4068 13.6195L16.8076 15.0644L15.3631 13.4668ZM16.0168 6.12107L17.083 5.16879L18.0459 6.22339L16.9798 7.17531L16.0168 6.12107ZM14.6408 2.97548L15.7071 2.00651L16.6707 3.07753L15.6036 4.02972L14.6408 2.97548ZM17.3754 9.26693L18.4417 8.31474L19.422 9.36899L18.3388 10.3209L17.3754 9.26693ZM12.5768 6.90341L14.1766 5.47513L15.621 7.05614L14.0219 8.48469L12.5768 6.90341Z" fill="#3E9CDC" style="fill:#3E9CDC;fill:color(display-p3 0.2431 0.6118 0.8627);fill-opacity:1;"/>
</svg>
